<mxfile host="app.diagrams.net" modified="2024-01-15T08:41:49.188Z" agent="Mozilla/5.0 (Macintosh; Intel Mac OS X 10_15_7) AppleWebKit/537.36 (KHTML, like Gecko) Chrome/120.0.0.0 Safari/537.36 Edg/120.0.0.0" version="22.1.18" etag="jB1R3QayEKMagScuuAr8" type="github">
  <diagram name="第 1 页" id="sIfhpbrV1fSAgjeWb_Hq">
    <mxGraphModel>
      <root>
        <mxCell id="0" />
        <mxCell id="1" parent="0" />
      </root>
    </mxGraphModel>
  </diagram>
</mxfile>
